# xmcd CD database file
#
# Track frame offsets:
#	150
#	12308
#	25901
#	37818
#	50333
#	63680
#	73021
#	86247
#	99227
#	112755
#
# Disc length: 1707 seconds
#
# Revision: 0
# Processed by: cddbd v1.5.2PL0 Copyright (c) Steve Scherf et al.
# Submitted via: CDex 1.50
#
DISCID=7906a90a
DTITLE=The Weather Station - All Of It Was Mine
DYEAR=1900
DGENRE=Country
TTITLE0=Everything I Saw
TTITLE1=Came So Easy
TTITLE2=Traveller
TTITLE3=Trying
TTITLE4=Chip On My Shoulder
TTITLE5=Know It To See It
TTITLE6=Yarrow And Mint
TTITLE7=Running Around Asking
TTITLE8=Nobody
TTITLE9=If I've Been Fooled
EXTD=
EXTT0=
EXTT1=
EXTT2=
EXTT3=
EXTT4=
EXTT5=
EXTT6=
EXTT7=
EXTT8=
EXTT9=
PLAYORDER=
